<mxfile host="app.diagrams.net" agent="Mozilla/5.0 (Windows NT 10.0; Win64; x64) AppleWebKit/537.36 (KHTML, like Gecko) Chrome/130.0.0.0 Safari/537.36 Edg/130.0.0.0" version="24.8.4">
  <diagram name="Page-1" id="1cbFnB-rBr0OyHsM7Gu3">
    <mxGraphModel dx="1226" dy="625" grid="1" gridSize="10" guides="1" tooltips="1" connect="1" arrows="1" fold="1" page="1" pageScale="1" pageWidth="850" pageHeight="1100" math="0" shadow="0">
      <root>
        <mxCell id="0" />
        <mxCell id="1" parent="0" />
        <mxCell id="JJhzOKi2Z4dJTIBI6f0a-23" value="" style="rounded=0;whiteSpace=wrap;html=1;fillColor=none;" vertex="1" parent="1">
          <mxGeometry x="439.47" y="160" width="221.05" height="200" as="geometry" />
        </mxCell>
        <mxCell id="JJhzOKi2Z4dJTIBI6f0a-7" value="" style="rounded=0;whiteSpace=wrap;html=1;fillColor=none;" vertex="1" parent="1">
          <mxGeometry x="90" y="120" width="250" height="250" as="geometry" />
        </mxCell>
        <mxCell id="JJhzOKi2Z4dJTIBI6f0a-1" value="" style="rounded=0;whiteSpace=wrap;html=1;fillColor=none;" vertex="1" parent="1">
          <mxGeometry x="60" y="70" width="985" height="330" as="geometry" />
        </mxCell>
        <mxCell id="JJhzOKi2Z4dJTIBI6f0a-18" value="" style="rounded=0;whiteSpace=wrap;html=1;fillColor=none;" vertex="1" parent="1">
          <mxGeometry x="104.47" y="160" width="221.05" height="200" as="geometry" />
        </mxCell>
        <mxCell id="JJhzOKi2Z4dJTIBI6f0a-5" value="" style="rounded=0;whiteSpace=wrap;html=1;fillColor=none;" vertex="1" parent="1">
          <mxGeometry x="750" y="120" width="260" height="250" as="geometry" />
        </mxCell>
        <mxCell id="JJhzOKi2Z4dJTIBI6f0a-2" value="Docker Environment" style="text;html=1;align=center;verticalAlign=middle;whiteSpace=wrap;rounded=0;fontStyle=1;fontSize=17;" vertex="1" parent="1">
          <mxGeometry x="84.47" y="80" width="180" height="30" as="geometry" />
        </mxCell>
        <mxCell id="JJhzOKi2Z4dJTIBI6f0a-8" value="" style="rounded=0;whiteSpace=wrap;html=1;fillColor=none;" vertex="1" parent="1">
          <mxGeometry x="425" y="120" width="250" height="250" as="geometry" />
        </mxCell>
        <mxCell id="JJhzOKi2Z4dJTIBI6f0a-9" value="Frontend Container" style="text;html=1;align=center;verticalAlign=middle;whiteSpace=wrap;rounded=0;fontStyle=1;fontSize=17;" vertex="1" parent="1">
          <mxGeometry x="104.47" y="130" width="160" height="30" as="geometry" />
        </mxCell>
        <mxCell id="JJhzOKi2Z4dJTIBI6f0a-10" value="Backend Container" style="text;html=1;align=center;verticalAlign=middle;whiteSpace=wrap;rounded=0;fontStyle=1;fontSize=17;" vertex="1" parent="1">
          <mxGeometry x="435" y="130" width="160" height="30" as="geometry" />
        </mxCell>
        <mxCell id="JJhzOKi2Z4dJTIBI6f0a-11" value="Database Container" style="text;html=1;align=center;verticalAlign=middle;whiteSpace=wrap;rounded=0;fontStyle=1;fontSize=17;" vertex="1" parent="1">
          <mxGeometry x="765" y="130" width="170" height="30" as="geometry" />
        </mxCell>
        <mxCell id="JJhzOKi2Z4dJTIBI6f0a-12" value="" style="shape=image;verticalLabelPosition=bottom;labelBackgroundColor=default;verticalAlign=top;aspect=fixed;imageAspect=0;image=https://miro.medium.com/v2/resize:fit:512/1*doAg1_fMQKWFoub-6gwUiQ.png;" vertex="1" parent="1">
          <mxGeometry x="834" y="214" width="92" height="92" as="geometry" />
        </mxCell>
        <mxCell id="JJhzOKi2Z4dJTIBI6f0a-14" value="" style="shape=image;verticalLabelPosition=bottom;labelBackgroundColor=default;verticalAlign=top;aspect=fixed;imageAspect=0;image=https://www.svgrepo.com/show/353724/express.svg;" vertex="1" parent="1">
          <mxGeometry x="500" y="210" width="100" height="100" as="geometry" />
        </mxCell>
        <mxCell id="JJhzOKi2Z4dJTIBI6f0a-17" value="" style="shape=image;verticalLabelPosition=bottom;labelBackgroundColor=default;verticalAlign=top;aspect=fixed;imageAspect=0;image=https://upload.wikimedia.org/wikipedia/commons/thumb/3/30/React_Logo_SVG.svg/1200px-React_Logo_SVG.svg.png;" vertex="1" parent="1">
          <mxGeometry x="183.54" y="198.5" width="62.93" height="58" as="geometry" />
        </mxCell>
        <mxCell id="JJhzOKi2Z4dJTIBI6f0a-19" value="App" style="text;html=1;align=center;verticalAlign=middle;whiteSpace=wrap;rounded=0;fontStyle=1;fontSize=17;" vertex="1" parent="1">
          <mxGeometry x="104.47" y="162" width="60" height="30" as="geometry" />
        </mxCell>
        <mxCell id="JJhzOKi2Z4dJTIBI6f0a-21" value="" style="shape=image;verticalLabelPosition=bottom;labelBackgroundColor=default;verticalAlign=top;aspect=fixed;imageAspect=0;image=https://miro.medium.com/v2/resize:fit:512/1*JEHLmWo6_SrpHPiP4AimIw.png;" vertex="1" parent="1">
          <mxGeometry x="114" y="256.5" width="202" height="101" as="geometry" />
        </mxCell>
        <mxCell id="JJhzOKi2Z4dJTIBI6f0a-24" value="App" style="text;html=1;align=center;verticalAlign=middle;whiteSpace=wrap;rounded=0;fontStyle=1;fontSize=17;" vertex="1" parent="1">
          <mxGeometry x="439.47" y="162" width="60" height="30" as="geometry" />
        </mxCell>
        <mxCell id="JJhzOKi2Z4dJTIBI6f0a-28" value="" style="endArrow=classic;startArrow=classic;html=1;rounded=0;exitX=1;exitY=0.5;exitDx=0;exitDy=0;entryX=0;entryY=0.5;entryDx=0;entryDy=0;" edge="1" parent="1" source="JJhzOKi2Z4dJTIBI6f0a-7" target="JJhzOKi2Z4dJTIBI6f0a-8">
          <mxGeometry width="50" height="50" relative="1" as="geometry">
            <mxPoint x="380" y="290" as="sourcePoint" />
            <mxPoint x="430" y="240" as="targetPoint" />
          </mxGeometry>
        </mxCell>
        <mxCell id="JJhzOKi2Z4dJTIBI6f0a-29" value="" style="endArrow=classic;startArrow=classic;html=1;rounded=0;exitX=1;exitY=0.5;exitDx=0;exitDy=0;entryX=0;entryY=0.5;entryDx=0;entryDy=0;" edge="1" parent="1" source="JJhzOKi2Z4dJTIBI6f0a-8" target="JJhzOKi2Z4dJTIBI6f0a-5">
          <mxGeometry width="50" height="50" relative="1" as="geometry">
            <mxPoint x="680" y="250" as="sourcePoint" />
            <mxPoint x="765" y="250" as="targetPoint" />
          </mxGeometry>
        </mxCell>
      </root>
    </mxGraphModel>
  </diagram>
</mxfile>
